<svg id="heart-bold" xmlns="http://www.w3.org/2000/svg" width="22" height="22" viewBox="0 0 22 22">
  <path id="heart1_bold" data-name="heart1 bold" d="M13.12,24.1a1.3,1.3,0,0,1-1.076-.476,22.905,22.905,0,0,0-1.793-1.665l-.717-.832a38.052,38.052,0,0,1-5.261-5.47A9.226,9.226,0,0,1,2,9.711,8.748,8.748,0,0,1,3.793,4.359,5.673,5.673,0,0,1,8.337,2.1a5.58,5.58,0,0,1,3.707,1.427A7.707,7.707,0,0,1,13,4.6h0a7.707,7.707,0,0,1,.957-1.07A5.077,5.077,0,0,1,17.543,2.1a5.9,5.9,0,0,1,4.663,2.259A8.748,8.748,0,0,1,24,9.711a9.866,9.866,0,0,1-2.152,6.065,59.556,59.556,0,0,1-5.38,5.589l-1.076,1.07a6.833,6.833,0,0,0-1.315,1.308c-.12.238-.478.357-.957.357ZM8.337,4.478A3.635,3.635,0,0,0,5.348,5.905a6.807,6.807,0,0,0,.478,8.324,35.551,35.551,0,0,0,5.141,5.232c.717.595,1.315,1.308,2.152,2.022l2.152-2.022a70.685,70.685,0,0,0,5.141-5.232,7.044,7.044,0,0,0,1.674-4.519,6.261,6.261,0,0,0-1.2-3.805A3.635,3.635,0,0,0,17.9,4.478h0a3.069,3.069,0,0,0-2.272.951,5.788,5.788,0,0,0-1.315,1.665,1.211,1.211,0,0,1-1.076.714h0c-.239,0-.359,0-.478-.119a1.437,1.437,0,0,1-.6-.595A8.987,8.987,0,0,0,10.848,5.43a3.871,3.871,0,0,0-2.511-.951Z" transform="translate(-2 -2.1)"/>
</svg>
