<svg id="search-bold" xmlns="http://www.w3.org/2000/svg" width="25" height="25" viewBox="0 0 25 25">
  <path id="search-bold-2" data-name="search-bold" d="M23.738,25a1.293,1.293,0,0,1-.967-.395l-6.239-6.272a10.676,10.676,0,0,1-5.975,1.842A10.29,10.29,0,0,1,.1,10.088,10.29,10.29,0,0,1,10.557,0,10.29,10.29,0,0,1,21.014,10.088a9.956,9.956,0,0,1-2.46,6.491L24.7,22.763a1.261,1.261,0,0,1,.4.921,1.366,1.366,0,0,1-.4.921A1.443,1.443,0,0,1,23.738,25ZM10.557,2.632a7.6,7.6,0,0,0-7.733,7.456,7.6,7.6,0,0,0,7.733,7.456,7.6,7.6,0,0,0,7.733-7.456A7.6,7.6,0,0,0,10.557,2.632Z" transform="translate(-0.1)"/>
</svg>
